Cast.....................: Shreyas Talpade ,Mahie Gill ,Shahana Goswami ,Konkona Sen Sharma,Raima Sen
Release Date.............: December 17 2010
Director.................: Vinay Shukla
Genre....................: Drama
Distributor..............: Shemaroo
Runtime..................: 1hrs 51 min
Source...................: Untouched DVD9 by PeTA @ Team IcTv


General
Complete name : C:\Users\Administrator\Documents\Harsh\Mirch (2010)400MB - DVRip.mp4
Format : MPEG-4
Format profile : Base Media / Version 2
Codec ID : mp42
File size : 402 MiB
Duration : 1h 51mn
Overall bit rate : 504 Kbps
Encoded date : UTC 2010-12-31 11:04:12
Tagged date : UTC 2010-12-31 13:00:42
Writing application : HandBrake 0.9.4 2009112300

Video
ID : 1
Format : AVC
Format/Info : Advanced Video Codec
Format profile : Main@L2.1
Format settings, CABAC : Yes
Format settings, ReFrames : 2 frames
Codec ID : avc1
Codec ID/Info : Advanced Video Coding
Duration : 1h 51mn
Bit rate mode : Variable
Bit rate : 337 Kbps
Width : 608 pixels
Height : 272 pixels
Display aspect ratio : 2.25:1
Frame rate mode : Variable
Frame rate : 29.970 fps
Minimum frame rate : 29.970 fps
Maximum frame rate : 29.980 fps
Color space : YUV
Chroma subsampling : 4:2:0
Bit depth : 8 bits
Scan type : Progressive
Bits/(Pixel*Frame) : 0.068
Stream size : 271 MiB (67%)
Writing library : x264 core 79
Encoding settings : cabac=1 / ref=2 / deblock=1:0:0 / analyse=0x1:0x111 / me=hex / subme=6 / psy=1 / psy_rd=1.0:0.0 / mixed_ref=0 / me_range=16 / chroma_me=1 / trellis=0 / 8x8dct=0 / cqm=0 / deadzone=21,11 / chroma_qp_offset=-2 / threads=1 / nr=0 / decimate=1 / mbaff=0 / constrained_intra=0 / bframes=2 / b_pyramid=0 / b_adapt=1 / b_bias=0 / direct=1 / wpredb=0 / wpredp=2 / keyint=300 / keyint_min=30 / scenecut=40 / rc_lookahead=40 / rc=abr / mbtree=1 / bitrate=337 / ratetol=1.0 / qcomp=0.60 / qpmin=10 / qpmax=51 / qpstep=4 / ip_ratio=1.40 / aq=1:1.00
Encoded date : UTC 2010-12-31 11:04:12
Tagged date : UTC 2010-12-31 13:00:41
Color primaries : BT.601-6 525, BT.1358 525, BT.1700 NTSC, SMPTE 170M
Transfer characteristics : BT.709-5, BT.1361
Matrix coefficients : BT.601-6 525, BT.1358 525, BT.1700 NTSC, SMPTE 170M

Audio
ID : 2
Format : AAC
Format/Info : Advanced Audio Codec
Format version : Version 4
Format profile : LC
Codec ID : 40
Duration : 1h 51mn
Bit rate mode : Variable
Bit rate : 160 Kbps
Maximum bit rate : 247 Kbps
Channel(s) : 2 channels
Channel positions : Front: L R
Sampling rate : 48.0 KHz
Compression mode : Lossy
Stream size : 128 MiB (32%)
Encoded date : UTC 2010-12-31 11:04:12
Tagged date : UTC 2010-12-31 13:00:39




screens
 
http://www.pix2links.com/images/93469538444596848237.jpg 
http://www.pix2links.com/images/35025927700567453888.jpg 
http://www.pix2links.com/images/20953600764609507892.jpg 
http://www.pix2links.com/images/22906514361122742769.jpg 
http://www.pix2links.com/images/75673076200649173200.jpg